MamaDo.mid

@393, Channel 1, Program change: Fingered Bs.

@400, Channel 5, Program change: Piano 3     

@400, Channel 2, Program change: Strings     

@400, Channel 0, Program change: Piano 3     

@406, Channel 3, Program change: Tenor Sax   

@413, Channel 4, Program change: Syn.Calliope

@425, Channel 6, Program change: Reverse Cym.

@432, Channel 7, Program change: Square Wave 

@438, Channel 8, Program change: Choir Aahs  

@445, Channel 9, Program change: Piano 1     

@451, Channel 10, Program change: Slow Strings

@457, Channel 11, Program change: Clean Gt.   

@464, Channel 13, Program change: Piano 2     

@464, Channel 12, Program change: Sweep Pad   

@470, Channel 14, Program change: Piano 2     

@477, Channel 15, Program change: Piano 2     
@1536, Channel 9, Note on:  F#2
@1681, Channel 9, Note off: F#2
@1920, Channel 9, Note on:  F#2
@2045, Channel 9, Note off: F#2
@2304, Channel 9, Note on:  F#2
@2424, Channel 9, Note off: F#2
@2688, Channel 9, Note on:  F#2
@2779, Channel 9, Note off: F#2
@3072, Channel 9, Note on:  D7
@3125, Channel 9, Note on:  D7
@3173, Channel 9, Note off: D7
@3181, Channel 9, Note off: D7
@3187, Channel 9, Note on:  D7
@3216, Channel 9, Note off: D7
@3217, Channel 9, Note on:  D7
@3244, Channel 9, Note off: D7
@3280, Channel 9, Note on:  D7
@3314, Channel 9, Note off: D7
@3338, Channel 9, Note on:  D7
@3371, Channel 9, Note off: D7
@3381, Channel 9, Note on:  D7
@3407, Channel 9, Note off: D7
@3428, Channel 9, Note on:  D7
@3456, Channel 3, Note on:  F#4
@3456, Channel 10, Note on:  F#4
@3457, Channel 9, Note off: D7
@3467, Channel 9, Note on:  D7
@3487, Channel 9, Note off: D7
@3508, Channel 9, Note on:  D7
@3541, Channel 9, Note off: D7
@3591, Channel 9, Note on:  D7
@3628, Channel 9, Note off: D7
@3645, Channel 9, Note on:  D7
@3667, Channel 9, Note off: D7
@3669, Channel 3, Note off: F#4
@3682, Channel 9, Note on:  D7
@3716, Channel 9, Note off: D7
@3733, Channel 9, Note on:  D7
@3759, Channel 9, Note off: D7
@3779, Channel 9, Note on:  D7
@3813, Channel 9, Note off: D7
@3822, Channel 9, Note on:  D7
@3840, Channel 3, Note on:  D#4
@3840, Channel 10, Note on:  D#4
@3841, Channel 10, Note off: F#4
@3851, Channel 9, Note off: D7
@3865, Channel 9, Note on:  D7
@3899, Channel 9, Note off: D7
@3906, Channel 9, Note on:  D7
@3934, Channel 9, Note off: D7
@3947, Channel 9, Note on:  D7
@3979, Channel 9, Note off: D7
@3995, Channel 9, Note on:  D7
@4022, Channel 9, Note off: D7
@4039, Channel 9, Note on:  D7
@4071, Channel 9, Note off: D7
@4079, Channel 10, Note off: D#4
@4084, Channel 9, Note on:  D7
@4090, Channel 3, Note off: D#4
@4114, Channel 9, Note off: D7
@4125, Channel 9, Note on:  D7
@4157, Channel 9, Note off: D7
@4171, Channel 9, Note on:  D7
@4200, Channel 9, Note off: D7
@4213, Channel 9, Note on:  D7
@4224, Channel 3, Note on:  G#4
@4224, Channel 10, Note on:  G#4
@4246, Channel 9, Note off: D7
@4259, Channel 9, Note on:  D7
@4285, Channel 9, Note off: D7
@4298, Channel 9, Note on:  D7
@4332, Channel 9, Note off: D7
@4342, Channel 9, Note on:  D7
@4371, Channel 9, Note off: D7
@4387, Channel 9, Note on:  D7
@4417, Channel 3, Note off: G#4
@4418, Channel 9, Note off: D7
@4428, Channel 9, Note on:  D7
@4456, Channel 9, Note off: D7
@4471, Channel 9, Note on:  D7
@4502, Channel 9, Note off: D7
@4517, Channel 9, Note on:  D7
@4522, Channel 10, Note off: G#4
@4542, Channel 9, Note off: D7
@4557, Channel 9, Note on:  D7
@4592, Channel 9, Note off: D7
@4608, Channel 3, Note on:  D#4
@4608, Channel 10, Note on:  D#4
@4608, Channel 9, Note on:  D7
@4634, Channel 9, Note off: D7
@4648, Channel 9, Note on:  D7
@4679, Channel 9, Note off: D7
@4693, Channel 9, Note on:  D7
@4718, Channel 9, Note off: D7
@4734, Channel 9, Note on:  D7
@4768, Channel 9, Note off: D7
@4781, Channel 9, Note on:  D7
@4806, Channel 9, Note off: D7
@4820, Channel 9, Note on:  D7
@4854, Channel 9, Note off: D7
@4870, Channel 9, Note on:  D7
@4895, Channel 9, Note off: D7
@4907, Channel 9, Note on:  D7
@4942, Channel 9, Note off: D7
@4956, Channel 9, Note on:  D7
@4983, Channel 9, Note off: D7
@4992, Channel 10, Note on:  D#3
@4998, Channel 9, Note on:  D7
@5031, Channel 9, Note off: D7
@5042, Channel 9, Note on:  D7
@5071, Channel 9, Note off: D7
@5085, Channel 9, Note on:  D7
@5119, Channel 9, Note off: D7
@5131, Channel 9, Note on:  D7
@5158, Channel 9, Note off: D7
@5174, Channel 9, Note on:  D7
@5205, Channel 9, Note off: D7
@5219, Channel 9, Note on:  D7
@5243, Channel 9, Note off: D7
@5261, Channel 9, Note on:  D7
@5287, Channel 9, Note off: D7
@5304, Channel 9, Note on:  D7
@5329, Channel 9, Note off: D7
@5343, Channel 9, Note on:  D7
@5375, Channel 9, Note off: D7
@5376, Channel 10, Note on:  D#2
@5392, Channel 9, Note on:  D7
@5415, Channel 9, Note off: D7
@5432, Channel 9, Note on:  D7
@5461, Channel 9, Note off: D7
@5474, Channel 9, Note on:  D7
@5499, Channel 9, Note off: D7
@5513, Channel 9, Note on:  D7
@5547, Channel 9, Note off: D7
@5562, Channel 9, Note on:  D7
@5585, Channel 9, Note off: D7
@5600, Channel 9, Note on:  D7
@5632, Channel 9, Note off: D7
@5645, Channel 9, Note on:  D7
@5672, Channel 9, Note off: D7
@5688, Channel 9, Note on:  D7
@5718, Channel 9, Note off: D7
@5734, Channel 9, Note on:  D7
@5758, Channel 9, Note off: D7
@5775, Channel 9, Note on:  D7
@5804, Channel 9, Note off: D7
@5817, Channel 9, Note on:  D7
@5842, Channel 9, Note off: D7
@5861, Channel 9, Note on:  D7
@5889, Channel 9, Note off: D7
@5902, Channel 9, Note on:  D7
@5927, Channel 9, Note off: D7
@5943, Channel 9, Note on:  D7
@5974, Channel 9, Note off: D7
@5983, Channel 9, Note on:  D7
@6009, Channel 9, Note off: D7
@6028, Channel 9, Note on:  D7
@6059, Channel 9, Note off: D7
@6067, Channel 9, Note on:  D7
@6071, Channel 3, Note off: D#4
@6092, Channel 9, Note off: D7
@6144, Channel 0, Note on:  D#5
@6144, Channel 0, Note on:  F#4
@6144, Channel 0, Note on:  A#4
@6149, Channel 1, Note on:  D#2
@6150, Channel 9, Note on:  C2
@6153, Channel 3, Note on:  F#4
@6158, Channel 10, Note off: D#4
@6213, Channel 10, Note off: D#3
@6237, Channel 10, Note off: D#2
@6257, Channel 9, Note off: C2
@6300, Channel 0, Note off: A#4
@6312, Channel 0, Note off: F#4
@6318, Channel 0, Note off: D#5
@6364, Channel 3, Note off: F#4
@6400, Channel 3, Note on:  F4
@6478, Channel 1, Note off: D#2
@6522, Channel 9, Note on:  D#2
@6524, Channel 3, Note off: F4
@6528, Channel 0, Note on:  D#5
@6528, Channel 0, Note on:  F#4
@6528, Channel 0, Note on:  A#4
@6529, Channel 9, Note on:  E2
@6534, Channel 3, Note on:  D#4
@6573, Channel 9, Note off: D#2
@6606, Channel 9, Note off: E2
@6663, Channel 0, Note off: A#4
@6684, Channel 0, Note off: D#5
@6685, Channel 0, Note off: F#4
@6760, Channel 9, Note on:  D#2
@6765, Channel 9, Note on:  C2
@6785, Channel 3, Note on:  F4
@6794, Channel 3, Note off: D#4
@6824, Channel 9, Note off: C2
@6878, Channel 9, Note off: D#2
@6912, Channel 0, Note on:  D#5
@6912, Channel 0, Note on:  F#4
@6912, Channel 0, Note on:  A#4
@6918, Channel 9, Note on:  C2
@6925, Channel 3, Note on:  F#4
@6945, Channel 3, Note off: F4
@7015, Channel 9, Note off: C2
@7059, Channel 0, Note off: A#4
@7070, Channel 0, Note off: D#5
@7076, Channel 0, Note off: F#4
@7239, Channel 3, Note off: F#4
@7296, Channel 0, Note on:  D#5
@7296, Channel 0, Note on:  F#4
@7296, Channel 0, Note on:  A#4
@7296, Channel 9, Note on:  E2
@7320, Channel 9, Note on:  D#2
@7352, Channel 9, Note off: E2
@7456, Channel 0, Note off: A#4
@7457, Channel 0, Note off: D#5
@7474, Channel 0, Note off: F#4
@7489, Channel 9, Note off: D#2
@7677, Channel 1, Note on:  D#2
@7680, Channel 0, Note on:  D#5
@7680, Channel 0, Note on:  F#4
@7680, Channel 0, Note on:  A#4
@7686, Channel 9, Note on:  C2
@7793, Channel 9, Note off: C2
@7834, Channel 0, Note off: D#5
@7836, Channel 0, Note off: A#4
@7844, Channel 0, Note off: F#4
@8053, Channel 9, Note on:  D#2
@8064, Channel 0, Note on:  D#5
@8064, Channel 0, Note on:  F#4
@8064, Channel 0, Note on:  A#4
@8065, Channel 9, Note on:  E2
@8080, Channel 3, Note on:  D#4
@8102, Channel 1, Note off: D#2
@8112, Channel 9, Note off: D#2
@8142, Channel 9, Note off: E2
@8204, Channel 0, Note off: A#4
@8214, Channel 0, Note off: D#5
@8218, Channel 0, Note off: F#4
@8301, Channel 9, Note on:  C2
@8302, Channel 9, Note on:  D#2
@8306, Channel 3, Note on:  F4
@8320, Channel 3, Note off: D#4
@8360, Channel 9, Note off: C2
@8389, Channel 3, Note off: F4
@8412, Channel 9, Note off: D#2
@8448, Channel 0, Note on:  D#5
@8448, Channel 0, Note on:  F#4
@8448, Channel 0, Note on:  A#4
@8450, Channel 3, Note on:  F#4
@8454, Channel 9, Note on:  C2
@8551, Channel 9, Note off: C2
@8583, Channel 0, Note off: A#4
@8592, Channel 0, Note off: D#5
@8600, Channel 0, Note off: F#4
@8629, Channel 3, Note off: F#4
@8686, Channel 1, Note on:  D#2
@8694, Channel 3, Note on:  F4
@8817, Channel 3, Note off: F4
@8821, Channel 1, Note off: D#2
@8826, Channel 9, Note on:  D#2
@8832, Channel 0, Note on:  D#5
@8832, Channel 0, Note on:  F#4
@8832, Channel 0, Note on:  A#4
@8832, Channel 9, Note on:  E2
@8837, Channel 3, Note on:  F#4
@8847, Channel 1, Note on:  F#1
@8888, Channel 9, Note off: E2
@8910, Channel 9, Note off: D#2
@8997, Channel 0, Note off: A#4
@9017, Channel 0, Note off: D#5
@9022, Channel 0, Note off: F#4
@9048, Channel 3, Note off: F#4
@9199, Channel 3, Note on:  G#4
@9216, Channel 0, Note on:  D#5
@9216, Channel 0, Note on:  B4
@9216, Channel 0, Note on:  G#4
@9221, Channel 1, Note on:  G#1
@9222, Channel 9, Note on:  C2
@9236, Channel 1, Note off: F#1
@9329, Channel 9, Note off: C2
@9403, Channel 0, Note off: D#5
@9404, Channel 0, Note off: G#4
@9411, Channel 0, Note off: B4
@9421, Channel 3, Note off: G#4
@9453, Channel 3, Note on:  F#4
@9494, Channel 3, Note off: F#4
@9592, Channel 3, Note on:  G#4
@9596, Channel 9, Note on:  D#2
@9600, Channel 0, Note on:  D#5
@9600, Channel 0, Note on:  B4
@9600, Channel 0, Note on:  G#4
@9601, Channel 9, Note on:  E2
@9647, Channel 9, Note off: D#2
@9678, Channel 9, Note off: E2
@9710, Channel 1, Note off: G#1
@9770, Channel 0, Note off: D#5
@9772, Channel 0, Note off: G#4
@9776, Channel 0, Note off: B4
@9822, Channel 3, Note on:  F#4
@9829, Channel 9, Note on:  D#2
@9834, Channel 3, Note off: G#4
@9837, Channel 9, Note on:  C2
@9894, Channel 9, Note off: D#2
@9896, Channel 9, Note off: C2
@9906, Channel 3, Note off: F#4
@9984, Channel 0, Note on:  G#4
@9984, Channel 0, Note on:  D#5
@9984, Channel 0, Note on:  B4
@9987, Channel 3, Note on:  G#4
@9990, Channel 9, Note on:  C2
@10070, Channel 3, Note on:  F#4
@10087, Channel 9, Note off: C2
@10089, Channel 3, Note off: G#4
@10162, Channel 3, Note off: F#4
@10169, Channel 0, Note off: D#5
@10172, Channel 0, Note off: G#4
@10179, Channel 3, Note on:  D#4
@10182, Channel 0, Note off: B4
@10351, Channel 9, Note on:  D#2
@10368, Channel 0, Note on:  G#4
@10368, Channel 0, Note on:  D#5
@10368, Channel 0, Note on:  B4
@10368, Channel 9, Note on:  E2
@10418, Channel 9, Note off: D#2
@10424, Channel 9, Note off: E2
@10548, Channel 0, Note off: G#4
@10551, Channel 0, Note off: D#5
@10559, Channel 0, Note off: B4
@10751, Channel 1, Note on:  G#1
@10752, Channel 0, Note on:  D#5
@10752, Channel 0, Note on:  B4
@10752, Channel 0, Note on:  G#4
@10758, Channel 9, Note on:  C2
@10865, Channel 9, Note off: C2
@10942, Channel 0, Note off: D#5
@10951, Channel 0, Note off: G#4
@10951, Channel 0, Note off: B4
@10971, Channel 3, Note off: D#4
@11123, Channel 9, Note on:  D#2
@11136, Channel 0, Note on:  D#5
@11136, Channel 0, Note on:  G#4
@11136, Channel 0, Note on:  B4
@11137, Channel 9, Note on:  E2
@11156, Channel 1, Note off: G#1
@11176, Channel 9, Note off: D#2
@11214, Channel 9, Note off: E2
@11313, Channel 0, Note off: D#5
@11316, Channel 0, Note off: G#4
@11322, Channel 0, Note off: B4
@11371, Channel 9, Note on:  D#2
@11373, Channel 9, Note on:  C2
@11425, Channel 9, Note off: D#2
@11432, Channel 9, Note off: C2
@11520, Channel 0, Note on:  B4
@11520, Channel 0, Note on:  D#5
@11520, Channel 0, Note on:  G#4
@11526, Channel 9, Note on:  C2
@11623, Channel 9, Note off: C2
@11689, Channel 0, Note off: D#5
@11702, Channel 0, Note off: B4
@11708, Channel 0, Note off: G#4
@11903, Channel 9, Note on:  D#2
@11904, Channel 0, Note on:  D#5
@11904, Channel 0, Note on:  B4
@11904, Channel 0, Note on:  G#4
@11904, Channel 9, Note on:  E2
@11960, Channel 9, Note off: E2
@11961, Channel 9, Note off: D#2
@12080, Channel 0, Note off: D#5
@12089, Channel 0, Note off: G#4
@12090, Channel 0, Note off: B4
@12145, Channel 3, Note on:  F#4
@12288, Channel 0, Note on:  D5
@12288, Channel 0, Note on:  F4
@12288, Channel 0, Note on:  A#4
@12294, Channel 9, Note on:  C2
@12304, Channel 1, Note on:  A#1
@12314, Channel 3, Note on:  F4
@12317, Channel 3, Note off: F#4
@12401, Channel 9, Note off: C2
@12461, Channel 0, Note off: A#4
@12461, Channel 0, Note off: D5
@12467, Channel 0, Note off: F4
@12521, Channel 3, Note on:  D#4
@12542, Channel 3, Note off: F4
@12657, Channel 3, Note off: D#4
@12666, Channel 9, Note on:  D#2
@12672, Channel 0, Note on:  D5
@12672, Channel 0, Note on:  F4
@12672, Channel 0, Note on:  A#4
@12673, Channel 3, Note on:  F4
@12673, Channel 9, Note on:  E2
@12683, Channel 1, Note off: A#1
@12717, Channel 9, Note off: D#2
@12750, Channel 9, Note off: E2
@12845, Channel 0, Note off: D5
@12848, Channel 0, Note off: A#4
@12859, Channel 0, Note off: F4
@12904, Channel 9, Note on:  D#2
@12909, Channel 9, Note on:  C2
@12927, Channel 3, Note on:  D#4
@12945, Channel 3, Note off: F4
@12968, Channel 9, Note off: C2
@13022, Channel 9, Note off: D#2
@13056, Channel 0, Note on:  D5
@13056, Channel 0, Note on:  F4
@13056, Channel 0, Note on:  A#4
@13062, Channel 9, Note on:  C2
@13063, Channel 3, Note off: D#4
@13064, Channel 3, Note on:  F4
@13159, Channel 9, Note off: C2
@13211, Channel 0, Note off: D5
@13219, Channel 0, Note off: A#4
@13229, Channel 0, Note off: F4
@13440, Channel 0, Note on:  D5
@13440, Channel 0, Note on:  F4
@13440, Channel 0, Note on:  A#4
@13440, Channel 9, Note on:  E2
@13464, Channel 9, Note on:  D#2
@13496, Channel 9, Note off: E2
@13549, Channel 3, Note off: F4
@13608, Channel 0, Note off: A#4
@13610, Channel 0, Note off: D5
@13620, Channel 0, Note off: F4
@13633, Channel 9, Note off: D#2
@13686, Channel 1, Note on:  F1
@13824, Channel 0, Note on:  D5
@13824, Channel 0, Note on:  F4
@13824, Channel 0, Note on:  A#4
@13830, Channel 9, Note on:  C2
@13834, Channel 1, Note off: F1
@13837, Channel 1, Note on:  A#1
@13937, Channel 9, Note off: C2
@13983, Channel 0, Note off: A#4
@13986, Channel 0, Note off: D5
@13987, Channel 0, Note off: F4
@14197, Channel 9, Note on:  D#2
@14208, Channel 0, Note on:  D5
@14208, Channel 0, Note on:  F4
@14208, Channel 0, Note on:  A#4
@14209, Channel 9, Note on:  E2
@14232, Channel 1, Note off: A#1
@14256, Channel 9, Note off: D#2
@14286, Channel 9, Note off: E2
@14393, Channel 0, Note off: D5
@14395, Channel 0, Note off: A#4
@14411, Channel 0, Note off: F4
@14445, Channel 9, Note on:  C2
@14446, Channel 9, Note on:  D#2
@14504, Channel 9, Note off: C2
@14556, Channel 9, Note off: D#2
@14592, Channel 0, Note on:  F4
@14592, Channel 0, Note on:  D5
@14592, Channel 0, Note on:  A#4
@14592, Channel 0, Note on:  G#4
@14593, Channel 3, Note on:  F4
@14598, Channel 9, Note on:  C2
@14695, Channel 9, Note off: C2
@14748, Channel 0, Note off: A#4
@14762, Channel 0, Note off: G#4
@14772, Channel 0, Note off: F4
@14784, Channel 0, Note off: D5
@14833, Channel 3, Note off: F4
@14837, Channel 3, Note on:  D#4
@14970, Channel 9, Note on:  D#2
@14976, Channel 0, Note on:  F4
@14976, Channel 0, Note on:  D5
@14976, Channel 0, Note on:  G#4
@14976, Channel 0, Note on:  A#4
@14976, Channel 9, Note on:  E2
@14985, Channel 3, Note on:  F4
@15003, Channel 3, Note off: D#4
@15032, Channel 9, Note off: E2
@15054, Channel 9, Note off: D#2
@15130, Channel 0, Note off: D5
@15145, Channel 0, Note off: G#4
@15148, Channel 0, Note off: F4
@15152, Channel 0, Note off: A#4
@15214, Channel 3, Note on:  F#4
@15233, Channel 3, Note off: F4
@15350, Channel 3, Note off: F#4
@15360, Channel 0, Note on:  F#4
@15360, Channel 0, Note on:  A#4
@15360, Channel 0, Note on:  D#5
@15361, Channel 3, Note on:  F4
@15366, Channel 9, Note on:  C2
@15368, Channel 1, Note on:  D#2
@15473, Channel 9, Note off: C2
@15521, Channel 0, Note off: A#4
@15539, Channel 0, Note off: F#4
@15548, Channel 0, Note off: D#5
@15740, Channel 9, Note on:  D#2
@15744, Channel 0, Note on:  F#4
@15744, Channel 0, Note on:  A#4
@15744, Channel 0, Note on:  D#5
@15744, Channel 3, Note on:  D#4
@15745, Channel 9, Note on:  E2
@15746, Channel 3, Note off: F4
@15747, Channel 1, Note off: D#2
@15791, Channel 9, Note off: D#2
@15822, Channel 9, Note off: E2
@15911, Channel 0, Note off: A#4
@15916, Channel 0, Note off: F#4
@15921, Channel 0, Note off: D#5
@15973, Channel 9, Note on:  D#2
@15981, Channel 9, Note on:  C2
@16038, Channel 9, Note off: D#2
@16040, Channel 9, Note off: C2
@16128, Channel 0, Note on:  D#5
@16128, Channel 0, Note on:  F#4
@16128, Channel 0, Note on:  A#4
@16134, Channel 9, Note on:  C2
@16231, Channel 9, Note off: C2
@16297, Channel 0, Note off: A#4
@16307, Channel 0, Note off: D#5
@16309, Channel 0, Note off: F#4
@16495, Channel 9, Note on:  D#2
@16512, Channel 0, Note on:  F#4
@16512, Channel 0, Note on:  A#4
@16512, Channel 0, Note on:  D#5
@16512, Channel 9, Note on:  E2
@16562, Channel 9, Note off: D#2
@16568, Channel 9, Note off: E2
@16581, Channel 3, Note off: D#4
@16671, Channel 0, Note off: A#4
@16681, Channel 0, Note off: F#4
@16682, Channel 0, Note off: D#5
@16884, Channel 5, Note on:  A#4
@16885, Channel 5, Note on:  F#4
@16892, Channel 1, Note on:  D#2
@16896, Channel 0, Note on:  F#4
@16896, Channel 0, Note on:  A#4
@16896, Channel 0, Note on:  D#5
@16902, Channel 9, Note on:  C2
@16903, Channel 2, Note on:  F#3
@17009, Channel 9, Note off: C2
@17075, Channel 0, Note off: A#4
@17084, Channel 0, Note off: F#4
@17089, Channel 0, Note off: D#5
@17119, Channel 5, Note off: F#4
@17121, Channel 5, Note off: A#4
@17126, Channel 5, Note on:  D#4
@17267, Channel 9, Note on:  D#2
@17272, Channel 2, Note on:  D#3
@17274, Channel 2, Note off: F#3
@17274, Channel 5, Note on:  F#4
@17276, Channel 5, Note on:  A#4
@17280, Channel 0, Note on:  F#4
@17280, Channel 0, Note on:  D#5
@17280, Channel 0, Note on:  A#4
@17281, Channel 9, Note on:  E2
@17294, Channel 5, Note off: D#4
@17320, Channel 9, Note off: D#2
@17358, Channel 9, Note off: E2
@17383, Channel 1, Note off: D#2
@17456, Channel 0, Note off: A#4
@17471, Channel 0, Note off: F#4
@17473, Channel 0, Note off: D#5
@17497, Channel 5, Note on:  D#4
@17499, Channel 5, Note off: A#4
@17500, Channel 5, Note off: F#4
@17515, Channel 9, Note on:  D#2
@17517, Channel 9, Note on:  C2
@17569, Channel 9, Note off: D#2
@17576, Channel 9, Note off: C2
@17662, Channel 2, Note off: D#3
@17662, Channel 5, Note on:  F#4
@17664, Channel 0, Note on:  F#4
@17664, Channel 0, Note on:  D#5
@17664, Channel 0, Note on:  A#4
@17664, Channel 5, Note on:  A#4
@17665, Channel 2, Note on:  B2
@17670, Channel 9, Note on:  C2
@17682, Channel 5, Note off: D#4
@17767, Channel 9, Note off: C2
@17859, Channel 0, Note off: A#4
@17869, Channel 0, Note off: F#4
@17869, Channel 5, Note off: F#4
@17872, Channel 0, Note off: D#5
@17878, Channel 5, Note off: A#4
@17895, Channel 5, Note on:  D#4
@17910, Channel 1, Note on:  G#1
@18029, Channel 2, Note on:  A#2
@18047, Channel 9, Note on:  D#2
@18048, Channel 0, Note on:  F#4
@18048, Channel 0, Note on:  D#5
@18048, Channel 0, Note on:  A#4
@18048, Channel 9, Note on:  E2
@18050, Channel 1, Note on:  A#1
@18051, Channel 5, Note on:  F#4
@18053, Channel 5, Note on:  A#4
@18058, Channel 1, Note off: G#1
@18064, Channel 5, Note off: D#4
@18064, Channel 2, Note off: B2
@18104, Channel 9, Note off: E2
@18105, Channel 9, Note off: D#2
@18205, Channel 0, Note off: A#4
@18226, Channel 0, Note off: F#4
@18227, Channel 0, Note off: D#5
@18262, Channel 5, Note off: A#4
@18267, Channel 5, Note off: F#4
@18275, Channel 3, Note on:  D#4
@18286, Channel 5, Note on:  D#4
@18365, Channel 3, Note off: D#4
@18386, Channel 1, Note off: A#1
@18392, Channel 5, Note off: D#4
@18427, Channel 3, Note on:  F#4
@18432, Channel 2, Note off: A#2
@18432, Channel 0, Note on:  D#5
@18432, Channel 0, Note on:  F#4
@18432, Channel 0, Note on:  A#4
@18437, Channel 1, Note on:  D#2
@18438, Channel 9, Note on:  C2
@18545, Channel 9, Note off: C2
@18588, Channel 0, Note off: A#4
@18600, Channel 0, Note off: F#4
@18606, Channel 0, Note off: D#5
@18663, Channel 3, Note on:  F4
@18675, Channel 3, Note off: F#4
@18766, Channel 1, Note off: D#2
@18804, Channel 3, Note on:  D#4
@18810, Channel 9, Note on:  D#2
@18814, Channel 3, Note off: F4
@18816, Channel 0, Note on:  D#5
@18816, Channel 0, Note on:  F#4
@18816, Channel 0, Note on:  A#4
@18817, Channel 9, Note on:  E2
@18861, Channel 9, Note off: D#2
@18894, Channel 9, Note off: E2
@18951, Channel 0, Note off: A#4
@18972, Channel 0, Note off: D#5
@18973, Channel 0, Note off: F#4
@19046, Channel 3, Note on:  F4
@19048, Channel 9, Note on:  D#2
@19053, Channel 9, Note on:  C2
@19065, Channel 3, Note off: D#4
@19112, Channel 9, Note off: C2
@19166, Channel 9, Note off: D#2
@19188, Channel 3, Note on:  F#4
@19195, Channel 3, Note off: F4
@19200, Channel 0, Note on:  D#5
@19200, Channel 0, Note on:  F#4
@19200, Channel 0, Note on:  A#4
@19206, Channel 9, Note on:  C2
@19303, Channel 9, Note off: C2
@19347, Channel 0, Note off: A#4
@19358, Channel 0, Note off: D#5
@19364, Channel 0, Note off: F#4
@19584, Channel 0, Note on:  D#5
@19584, Channel 0, Note on:  F#4
@19584, Channel 0, Note on:  A#4
@19584, Channel 9, Note on:  E2
@19608, Channel 9, Note on:  D#2
@19640, Channel 9, Note off: E2
@19668, Channel 3, Note off: F#4
@19744, Channel 0, Note off: A#4
@19745, Channel 0, Note off: D#5
@19762, Channel 0, Note off: F#4
@19777, Channel 9, Note off: D#2
@19965, Channel 1, Note on:  D#2
@19968, Channel 0, Note on:  D#5
@19968, Channel 0, Note on:  F#4
@19968, Channel 0, Note on:  A#4
@19974, Channel 9, Note on:  C2
@20081, Channel 9, Note off: C2
@20122, Channel 0, Note off: D#5
@20124, Channel 0, Note off: A#4
@20132, Channel 0, Note off: F#4
@20341, Channel 9, Note on:  D#2
@20352, Channel 0, Note on:  D#5
@20352, Channel 0, Note on:  F#4
@20352, Channel 0, Note on:  A#4
@20352, Channel 3, Note on:  D#4
@20353, Channel 9, Note on:  E2
@20390, Channel 1, Note off: D#2
@20400, Channel 9, Note off: D#2
@20430, Channel 9, Note off: E2
@20492, Channel 0, Note off: A#4
@20502, Channel 0, Note off: D#5
@20506, Channel 0, Note off: F#4
@20571, Channel 3, Note on:  F4
@20580, Channel 3, Note off: D#4
@20581, Channel 2, Note on:  A#2
@20589, Channel 9, Note on:  C2
@20590, Channel 9, Note on:  D#2
@20648, Channel 9, Note off: C2
@20700, Channel 9, Note off: D#2
@20736, Channel 0, Note on:  D#5
@20736, Channel 0, Note on:  F#4
@20736, Channel 0, Note on:  A#4
@20738, Channel 2, Note on:  B2
@20742, Channel 9, Note on:  C2
@20743, Channel 3, Note on:  F#4
@20758, Channel 2, Note off: A#2
@20766, Channel 3, Note off: F4
@20839, Channel 9, Note off: C2
@20871, Channel 0, Note off: A#4
@20880, Channel 0, Note off: D#5
@20888, Channel 0, Note off: F#4
@20955, Channel 3, Note on:  F4
@20956, Channel 2, Note on:  A#2
@20959, Channel 2, Note off: B2
@20966, Channel 3, Note off: F#4
@20974, Channel 1, Note on:  D#2
@21109, Channel 1, Note off: D#2
@21114, Channel 9, Note on:  D#2
@21119, Channel 2, Note on:  B2
@21120, Channel 0, Note on:  D#5
@21120, Channel 0, Note on:  F#4
@21120, Channel 0, Note on:  A#4
@21120, Channel 9, Note on:  E2
@21126, Channel 3, Note on:  F#4
@21135, Channel 1, Note on:  F#1
@21153, Channel 2, Note off: A#2
@21153, Channel 3, Note off: F4
@21176, Channel 9, Note off: E2
@21198, Channel 9, Note off: D#2
@21285, Channel 0, Note off: A#4
@21305, Channel 0, Note off: D#5
@21310, Channel 0, Note off: F#4
@21329, Channel 2, Note off: B2
@21337, Channel 2, Note on:  A#2
@21373, Channel 3, Note off: F#4
@21488, Channel 2, Note off: A#2
@21504, Channel 0, Note on:  D#5
@21504, Channel 0, Note on:  B4
@21504, Channel 0, Note on:  G#4
@21505, Channel 3, Note on:  G#4
@21509, Channel 1, Note on:  G#1
@21510, Channel 9, Note on:  C2
@21524, Channel 1, Note off: F#1
@21617, Channel 9, Note off: C2
@21691, Channel 0, Note off: D#5
@21692, Channel 0, Note off: G#4
@21699, Channel 0, Note off: B4
@21769, Channel 3, Note on:  F#4
@21771, Channel 3, Note off: G#4
@21838, Channel 3, Note off: F#4
@21871, Channel 3, Note on:  G#4
@21884, Channel 9, Note on:  D#2
@21888, Channel 0, Note on:  D#5
@21888, Channel 0, Note on:  B4
@21888, Channel 0, Note on:  G#4
@21889, Channel 9, Note on:  E2
@21935, Channel 9, Note off: D#2
@21966, Channel 9, Note off: E2
@21998, Channel 1, Note off: G#1
@22058, Channel 0, Note off: D#5
@22060, Channel 0, Note off: G#4
@22064, Channel 0, Note off: B4
@22117, Channel 9, Note on:  D#2
@22125, Channel 9, Note on:  C2
@22140, Channel 3, Note on:  F#4
@22162, Channel 3, Note off: G#4
@22182, Channel 9, Note off: D#2
@22184, Channel 9, Note off: C2
@22254, Channel 3, Note off: F#4
@22272, Channel 0, Note on:  G#4
@22272, Channel 0, Note on:  D#5
@22272, Channel 0, Note on:  B4
@22274, Channel 3, Note on:  G#4
@22278, Channel 9, Note on:  C2
@22374, Channel 3, Note on:  F#4
@22375, Channel 9, Note off: C2
@22379, Channel 3, Note off: G#4
@22447, Channel 3, Note off: F#4
@22457, Channel 0, Note off: D#5
@22460, Channel 0, Note off: G#4
@22470, Channel 0, Note off: B4
@22471, Channel 3, Note on:  D#4
@22639, Channel 9, Note on:  D#2
@22656, Channel 0, Note on:  G#4
@22656, Channel 0, Note on:  D#5
@22656, Channel 0, Note on:  B4
@22656, Channel 9, Note on:  E2
@22706, Channel 9, Note off: D#2
@22712, Channel 9, Note off: E2
@22836, Channel 0, Note off: G#4
@22839, Channel 0, Note off: D#5
@22847, Channel 0, Note off: B4
@23039, Channel 1, Note on:  G#1
@23040, Channel 0, Note on:  D#5
@23040, Channel 0, Note on:  B4
@23040, Channel 0, Note on:  G#4
@23046, Channel 9, Note on:  C2
@23058, Channel 3, Note off: D#4
@23153, Channel 9, Note off: C2
@23230, Channel 0, Note off: D#5
@23239, Channel 0, Note off: G#4
@23239, Channel 0, Note off: B4
@23411, Channel 9, Note on:  D#2
@23424, Channel 0, Note on:  D#5
@23424, Channel 0, Note on:  G#4
@23424, Channel 0, Note on:  B4
@23425, Channel 9, Note on:  E2
@23444, Channel 1, Note off: G#1
@23464, Channel 9, Note off: D#2
@23502, Channel 9, Note off: E2
@23601, Channel 0, Note off: D#5
@23604, Channel 0, Note off: G#4
@23610, Channel 0, Note off: B4
@23659, Channel 9, Note on:  D#2
@23661, Channel 9, Note on:  C2
@23670, Channel 2, Note on:  B2
@23713, Channel 9, Note off: D#2
@23720, Channel 9, Note off: C2
@23800, Channel 2, Note on:  C#3
@23808, Channel 0, Note on:  B4
@23808, Channel 0, Note on:  D#5
@23808, Channel 0, Note on:  G#4
@23814, Channel 9, Note on:  C2
@23817, Channel 2, Note off: B2
@23911, Channel 9, Note off: C2
@23977, Channel 0, Note off: D#5
@23990, Channel 0, Note off: B4
@23996, Channel 0, Note off: G#4
@24024, Channel 2, Note off: C#3
@24038, Channel 2, Note on:  B2
@24177, Channel 2, Note on:  C#3
@24181, Channel 2, Note off: B2
@24191, Channel 3, Note on:  F#4
@24191, Channel 9, Note on:  D#2
@24192, Channel 0, Note on:  D#5
@24192, Channel 0, Note on:  B4
@24192, Channel 0, Note on:  G#4
@24192, Channel 9, Note on:  E2
@24248, Channel 9, Note off: E2
@24249, Channel 9, Note off: D#2
@24253, Channel 3, Note off: F#4
@24368, Channel 0, Note off: D#5
@24377, Channel 0, Note off: G#4
@24378, Channel 0, Note off: B4
@24405, Channel 2, Note off: C#3
@24415, Channel 3, Note on:  F#4
@24419, Channel 2, Note on:  B2
@24550, Channel 2, Note off: B2
@24576, Channel 0, Note on:  D5
@24576, Channel 0, Note on:  F4
@24576, Channel 0, Note on:  A#4
@24582, Channel 9, Note on:  C2
@24590, Channel 3, Note on:  F4
@24592, Channel 1, Note on:  A#1
@24660, Channel 3, Note off: F#4
@24689, Channel 9, Note off: C2
@24749, Channel 0, Note off: A#4
@24749, Channel 0, Note off: D5
@24755, Channel 0, Note off: F4
@24807, Channel 3, Note off: F4
@24954, Channel 9, Note on:  D#2
@24960, Channel 0, Note on:  D5
@24960, Channel 0, Note on:  F4
@24960, Channel 0, Note on:  A#4
@24961, Channel 9, Note on:  E2
@24965, Channel 3, Note on:  F4
@24971, Channel 1, Note off: A#1
@25005, Channel 9, Note off: D#2
@25038, Channel 9, Note off: E2
@25133, Channel 0, Note off: D5
@25136, Channel 0, Note off: A#4
@25147, Channel 0, Note off: F4
@25192, Channel 9, Note on:  D#2
@25196, Channel 3, Note on:  D#4
@25197, Channel 9, Note on:  C2
@25206, Channel 3, Note off: F4
@25256, Channel 9, Note off: C2
@25310, Channel 9, Note off: D#2
@25342, Channel 3, Note on:  F4
@25344, Channel 0, Note on:  D5
@25344, Channel 0, Note on:  F4
@25344, Channel 0, Note on:  A#4
@25350, Channel 9, Note on:  C2
@25357, Channel 3, Note off: D#4
@25447, Channel 9, Note off: C2
@25499, Channel 0, Note off: D5
@25507, Channel 0, Note off: A#4
@25517, Channel 0, Note off: F4
@25728, Channel 0, Note on:  D5
@25728, Channel 0, Note on:  F4
@25728, Channel 0, Note on:  A#4
@25728, Channel 9, Note on:  E2
@25752, Channel 9, Note on:  D#2
@25784, Channel 9, Note off: E2
@25896, Channel 0, Note off: A#4
@25898, Channel 0, Note off: D5
@25908, Channel 0, Note off: F4
@25921, Channel 9, Note off: D#2
@25974, Channel 1, Note on:  F1
@25987, Channel 3, Note off: F4
@26112, Channel 0, Note on:  D5
@26112, Channel 0, Note on:  F4
@26112, Channel 0, Note on:  A#4
@26118, Channel 9, Note on:  C2
@26122, Channel 1, Note off: F1
@26125, Channel 1, Note on:  A#1
@26225, Channel 9, Note off: C2
@26271, Channel 0, Note off: A#4
@26274, Channel 0, Note off: D5
@26275, Channel 0, Note off: F4
@26485, Channel 9, Note on:  D#2
@26496, Channel 0, Note on:  D5
@26496, Channel 0, Note on:  F4
@26496, Channel 0, Note on:  A#4
@26497, Channel 9, Note on:  E2
@26520, Channel 1, Note off: A#1
@26544, Channel 9, Note off: D#2
@26574, Channel 9, Note off: E2
@26681, Channel 0, Note off: D5
@26683, Channel 0, Note off: A#4
@26699, Channel 0, Note off: F4
@26725, Channel 2, Note on:  A#2
@26733, Channel 9, Note on:  C2
@26734, Channel 9, Note on:  D#2
@26792, Channel 9, Note off: C2
@26844, Channel 9, Note off: D#2
@26876, Channel 2, Note on:  B2
@26880, Channel 0, Note on:  F4
@26880, Channel 0, Note on:  D5
@26880, Channel 0, Note on:  A#4
@26880, Channel 0, Note on:  G#4
@26886, Channel 9, Note on:  C2
@26911, Channel 2, Note off: A#2
@26983, Channel 9, Note off: C2
@27036, Channel 0, Note off: A#4
@27050, Channel 0, Note off: G#4
@27060, Channel 0, Note off: F4
@27072, Channel 0, Note off: D5
@27111, Channel 2, Note on:  A#2
@27112, Channel 2, Note off: B2
@27252, Channel 3, Note on:  F4
@27258, Channel 9, Note on:  D#2
@27260, Channel 2, Note on:  B2
@27264, Channel 0, Note on:  F4
@27264, Channel 0, Note on:  D5
@27264, Channel 0, Note on:  G#4
@27264, Channel 0, Note on:  A#4
@27264, Channel 9, Note on:  E2
@27275, Channel 2, Note off: A#2
@27320, Channel 9, Note off: E2
@27342, Channel 9, Note off: D#2
@27418, Channel 0, Note off: D5
@27433, Channel 0, Note off: G#4
@27436, Channel 0, Note off: F4
@27440, Channel 0, Note off: A#4
@27477, Channel 2, Note off: B2
@27484, Channel 2, Note on:  A#2
@27504, Channel 3, Note on:  F#4
@27525, Channel 3, Note off: F4
@27630, Channel 2, Note off: A#2
@27648, Channel 0, Note on:  F#4
@27648, Channel 0, Note on:  A#4
@27648, Channel 0, Note on:  D#5
@27654, Channel 9, Note on:  C2
@27656, Channel 1, Note on:  D#2
@27658, Channel 3, Note on:  F4
@27675, Channel 3, Note off: F#4
@27761, Channel 9, Note off: C2
@27809, Channel 0, Note off: A#4
@27827, Channel 0, Note off: F#4
@27836, Channel 0, Note off: D#5
@28010, Channel 3, Note off: F4
@28023, Channel 3, Note on:  D#4
@28028, Channel 9, Note on:  D#2
@28032, Channel 0, Note on:  F#4
@28032, Channel 0, Note on:  A#4
@28032, Channel 0, Note on:  D#5
@28033, Channel 9, Note on:  E2
@28035, Channel 1, Note off: D#2
@28079, Channel 9, Note off: D#2
@28110, Channel 9, Note off: E2
@28199, Channel 0, Note off: A#4
@28204, Channel 0, Note off: F#4
@28209, Channel 0, Note off: D#5
@28261, Channel 9, Note on:  D#2
@28269, Channel 9, Note on:  C2
@28326, Channel 9, Note off: D#2
@28328, Channel 9, Note off: C2
@28416, Channel 0, Note on:  D#5
@28416, Channel 0, Note on:  F#4
@28416, Channel 0, Note on:  A#4
@28422, Channel 9, Note on:  C2
@28519, Channel 9, Note off: C2
@28585, Channel 0, Note off: A#4
@28595, Channel 0, Note off: D#5
@28597, Channel 0, Note off: F#4
@28670, Channel 3, Note off: D#4
@28783, Channel 9, Note on:  D#2
@28800, Channel 0, Note on:  F#4
@28800, Channel 0, Note on:  A#4
@28800, Channel 0, Note on:  D#5
@28800, Channel 9, Note on:  E2
@28850, Channel 9, Note off: D#2
@28856, Channel 9, Note off: E2
@28959, Channel 0, Note off: A#4
@28969, Channel 0, Note off: F#4
@28970, Channel 0, Note off: D#5
@29172, Channel 5, Note on:  A#4
@29173, Channel 5, Note on:  F#4
@29180, Channel 1, Note on:  D#2
@29184, Channel 0, Note on:  F#4
@29184, Channel 0, Note on:  A#4
@29184, Channel 0, Note on:  D#5
@29190, Channel 9, Note on:  C2
@29191, Channel 2, Note on:  F#3
@29297, Channel 9, Note off: C2
@29363, Channel 0, Note off: A#4
@29372, Channel 0, Note off: F#4
@29377, Channel 0, Note off: D#5
@29407, Channel 5, Note off: F#4
@29409, Channel 5, Note off: A#4
@29414, Channel 5, Note on:  D#4
@29555, Channel 9, Note on:  D#2
@29560, Channel 2, Note on:  D#3
@29562, Channel 2, Note off: F#3
@29562, Channel 5, Note on:  F#4
@29564, Channel 5, Note on:  A#4
@29568, Channel 0, Note on:  F#4
@29568, Channel 0, Note on:  D#5
@29568, Channel 0, Note on:  A#4
@29569, Channel 9, Note on:  E2
@29575, Channel 3, Note on:  A#4
@29582, Channel 5, Note off: D#4
@29608, Channel 9, Note off: D#2
@29646, Channel 9, Note off: E2
@29671, Channel 1, Note off: D#2
@29744, Channel 0, Note off: A#4
@29759, Channel 0, Note off: F#4
@29761, Channel 0, Note off: D#5
@29772, Channel 3, Note off: A#4
@29785, Channel 5, Note on:  D#4
@29787, Channel 5, Note off: A#4
@29788, Channel 5, Note off: F#4
@29796, Channel 6, Note on:  G3
@29803, Channel 9, Note on:  D#2
@29805, Channel 9, Note on:  C2
@29806, Channel 6, Note on:  G4
@29808, Channel 6, Note on:  E4
@29809, Channel 6, Note on:  B3
@29812, Channel 6, Note on:  D4
@29822, Channel 6, Note on:  A3
@29825, Channel 9, Note on:  C3
@29844, Channel 7, Note on:  D#3
@29857, Channel 9, Note off: D#2
@29864, Channel 9, Note off: C2
@29867, Channel 9, Note off: C3
@29880, Channel 7, Note off: D#3
@29907, Channel 6, Note off: A3
@29949, Channel 7, Note on:  D#3
@29950, Channel 2, Note off: D#3
@29950, Channel 5, Note on:  F#4
@29952, Channel 0, Note on:  F#4
@29952, Channel 0, Note on:  D#5
@29952, Channel 0, Note on:  A#4
@29952, Channel 5, Note on:  A#4
@29953, Channel 2, Note on:  B2
@29958, Channel 3, Note on:  G#4
@29958, Channel 9, Note on:  C2
@29962, Channel 9, Note on:  C3
@29970, Channel 5, Note off: D#4
@29990, Channel 7, Note off: D#3
@29998, Channel 9, Note off: C3
@30055, Channel 9, Note off: C2
@30071, Channel 7, Note on:  D#3
@30082, Channel 9, Note on:  B2
@30121, Channel 7, Note off: D#3
@30124, Channel 9, Note off: B2
@30147, Channel 0, Note off: A#4
@30157, Channel 0, Note off: F#4
@30157, Channel 5, Note off: F#4
@30160, Channel 0, Note off: D#5
@30162, Channel 3, Note off: G#4
@30166, Channel 5, Note off: A#4
@30183, Channel 5, Note on:  D#4
@30198, Channel 1, Note on:  G#1
@30199, Channel 7, Note on:  D#3
@30216, Channel 9, Note on:  B2
@30245, Channel 7, Note off: D#3
@30256, Channel 9, Note off: B2
@30317, Channel 2, Note on:  A#2
@30335, Channel 9, Note on:  D#2
@30336, Channel 0, Note on:  F#4
@30336, Channel 0, Note on:  D#5
@30336, Channel 0, Note on:  A#4
@30336, Channel 9, Note on:  E2
@30338, Channel 1, Note on:  A#1
@30338, Channel 3, Note on:  F#4
@30339, Channel 5, Note on:  F#4
@30341, Channel 5, Note on:  A#4
@30344, Channel 7, Note on:  D#3
@30346, Channel 1, Note off: G#1
@30352, Channel 5, Note off: D#4
@30352, Channel 2, Note off: B2
@30360, Channel 9, Note on:  B2
@30390, Channel 7, Note off: D#3
@30392, Channel 9, Note off: E2
@30393, Channel 9, Note off: D#2
@30403, Channel 9, Note off: B2
@30456, Channel 7, Note on:  D#3
@30468, Channel 9, Note on:  A2
@30493, Channel 7, Note off: D#3
@30493, Channel 0, Note off: A#4
@30511, Channel 9, Note off: A2
@30514, Channel 0, Note off: F#4
@30515, Channel 0, Note off: D#5
@30547, Channel 3, Note off: F#4
@30550, Channel 5, Note off: A#4
@30555, Channel 5, Note off: F#4
@30574, Channel 5, Note on:  D#4
@30578, Channel 7, Note on:  D#3
@30609, Channel 9, Note on:  A2
@30666, Channel 9, Note off: A2
@30674, Channel 7, Note off: D#3
@30674, Channel 1, Note off: A#1
@30680, Channel 5, Note off: D#4
@30696, Channel 10, Note on:  G#4
@30699, Channel 10, Note on:  B3
@30701, Channel 10, Note on:  D#4
@30715, Channel 10, Note on:  G#2
@30717, Channel 10, Note on:  G#3
@30720, Channel 2, Note off: A#2
@30720, Channel 0, Note on:  D#5
@30720, Channel 0, Note on:  B4
@30720, Channel 0, Note on:  G#4
@30720, Channel 0, Note on:  G#3
@30720, Channel 2, Note on:  D#4
@30720, Channel 2, Note on:  G#3
@30720, Channel 2, Note on:  G#4
@30720, Channel 9, Note on:  C2
@30720, Channel 11, Note on:  D#3
@30722, Channel 2, Note on:  B4
@30729, Channel 3, Note on:  G#4
@30732, Channel 1, Note on:  G#1
@30734, Channel 8, Note on:  D#4
@30736, Channel 8, Note on:  G#4
@30738, Channel 8, Note on:  B4
@30741, Channel 8, Note on:  B3
@30744, Channel 9, Note on:  B3
@30746, Channel 9, Note on:  A3
@30762, Channel 6, Note off: E4
@30765, Channel 6, Note off: D4
@30766, Channel 6, Note off: G4
@30768, Channel 6, Note off: B3
@30769, Channel 6, Note off: G3
@30801, Channel 9, Note off: B3
@30842, Channel 9, Note off: A3
@30888, Channel 9, Note off: C2
@30911, Channel 0, Note off: G#3
@30911, Channel 0, Note off: D#5
@30918, Channel 0, Note off: G#4
@30925, Channel 0, Note off: B4
@30945, Channel 1, Note off: G#1
@30998, Channel 11, Note off: D#3
@31098, Channel 9, Note on:  D#2
@31104, Channel 0, Note on:  G#3
@31104, Channel 0, Note on:  B4
@31104, Channel 0, Note on:  G#4
@31104, Channel 0, Note on:  D#5
@31104, Channel 9, Note on:  C2
@31104, Channel 9, Note on:  E2
@31104, Channel 11, Note on:  D#4
@31104, Channel 11, Note on:  B4
@31104, Channel 11, Note on:  G#4
@31110, Channel 1, Note on:  G#1
@31133, Channel 9, Note on:  F#2
@31149, Channel 9, Note off: D#2
@31181, Channel 9, Note off: E2
@31247, Channel 9, Note off: F#2
@31284, Channel 9, Note off: C2
@31284, Channel 0, Note off: G#3
@31289, Channel 0, Note off: D#5
@31294, Channel 0, Note off: G#4
@31297, Channel 0, Note off: B4
@31311, Channel 1, Note off: G#1
@31315, Channel 11, Note off: G#4
@31330, Channel 11, Note off: D#4
@31336, Channel 9, Note on:  D#2
@31338, Channel 11, Note off: B4
@31378, Channel 9, Note on:  B3
@31419, Channel 9, Note off: B3
@31454, Channel 9, Note off: D#2
@31482, Channel 1, Note on:  G#1
@31488, Channel 0, Note on:  G#3
@31488, Channel 0, Note on:  G#4
@31488, Channel 0, Note on:  B4
@31488, Channel 0, Note on:  D#5
@31488, Channel 9, Note on:  C2
@31502, Channel 9, Note on:  B3
@31577, Channel 9, Note off: B3
@31636, Channel 0, Note off: G#3
@31657, Channel 9, Note off: C2
@31659, Channel 0, Note off: D#5
@31677, Channel 0, Note off: G#4
@31680, Channel 0, Note off: B4
@31709, Channel 1, Note off: G#1
@31869, Channel 1, Note on:  G#1
@31872, Channel 0, Note on:  G#3
@31872, Channel 0, Note on:  D#5
@31872, Channel 0, Note on:  B4
@31872, Channel 0, Note on:  G#4
@31872, Channel 9, Note on:  E2
@31872, Channel 9, Note on:  C2
@31872, Channel 11, Note on:  B4
@31872, Channel 11, Note on:  D#4
@31872, Channel 11, Note on:  G#4
@31882, Channel 3, Note off: G#4
@31883, Channel 3, Note on:  F#4
@31888, Channel 9, Note on:  F#2
@31896, Channel 9, Note on:  D#2
@31928, Channel 9, Note off: E2
@31981, Channel 9, Note off: F#2
@32017, Channel 0, Note off: G#3
@32029, Channel 0, Note off: D#5
@32043, Channel 0, Note off: G#4
@32045, Channel 9, Note off: C2
@32045, Channel 0, Note off: B4
@32065, Channel 9, Note off: D#2
@32076, Channel 11, Note off: G#4
@32076, Channel 11, Note off: B4
@32085, Channel 11, Note off: D#4
@32102, Channel 1, Note off: G#1
@32106, Channel 3, Note on:  G#4
@32119, Channel 3, Note off: F#4
@32256, Channel 0, Note on:  G#3
@32256, Channel 0, Note on:  D#5
@32256, Channel 0, Note on:  G#4
@32256, Channel 0, Note on:  B4
@32256, Channel 9, Note on:  C2
@32261, Channel 1, Note on:  G#1
@32296, Channel 9, Note on:  B3
@32342, Channel 9, Note off: B3
@32412, Channel 0, Note off: G#3
@32417, Channel 9, Note off: C2
@32434, Channel 0, Note off: D#5
@32443, Channel 0, Note off: G#4
@32448, Channel 0, Note off: B4
@32481, Channel 1, Note off: G#1
@32529, Channel 4, Note on:  D#4
@32629, Channel 9, Note on:  D#2
@32637, Channel 4, Note off: D#4
@32640, Channel 0, Note on:  G#3
@32640, Channel 0, Note on:  G#4
@32640, Channel 0, Note on:  B4
@32640, Channel 0, Note on:  D#5
@32640, Channel 9, Note on:  C2
@32640, Channel 9, Note on:  E2
@32640, Channel 11, Note on:  B4
@32640, Channel 11, Note on:  D#4
@32640, Channel 11, Note on:  G#4
@32642, Channel 1, Note on:  G#1
@32659, Channel 4, Note on:  F#4
@32664, Channel 9, Note on:  F#2
@32688, Channel 9, Note off: D#2
@32717, Channel 9, Note off: E2
@32777, Channel 9, Note off: F#2
@32803, Channel 9, Note off: C2
@32803, Channel 0, Note off: G#3
@32817, Channel 0, Note off: D#5
@32824, Channel 0, Note off: G#4
@32832, Channel 0, Note off: B4
@32869, Channel 11, Note off: G#4
@32873, Channel 11, Note off: B4
@32876, Channel 1, Note off: G#1
@32878, Channel 9, Note on:  D#2
@32885, Channel 11, Note off: D#4
@32886, Channel 4, Note off: F#4
@32890, Channel 4, Note on:  G#4
@32903, Channel 9, Note on:  B3
@32939, Channel 9, Note off: B3
@32988, Channel 9, Note off: D#2
@33021, Channel 1, Note on:  G#1
@33024, Channel 0, Note on:  G#3
@33024, Channel 0, Note on:  D#5
@33024, Channel 0, Note on:  B4
@33024, Channel 0, Note on:  G#4
@33024, Channel 9, Note on:  C2
@33032, Channel 9, Note on:  B3
@33039, Channel 4, Note on:  F#4
@33049, Channel 3, Note off: G#4
@33059, Channel 4, Note off: G#4
@33088, Channel 9, Note off: B3
@33176, Channel 0, Note off: G#3
@33181, Channel 9, Note off: C2
@33199, Channel 0, Note off: D#5
@33220, Channel 0, Note off: G#4
@33221, Channel 10, Note off: G#3
@33224, Channel 0, Note off: B4
@33236, Channel 4, Note off: F#4
@33266, Channel 4, Note on:  D#4
@33277, Channel 1, Note off: G#1
@33402, Channel 9, Note on:  D#2
@33408, Channel 0, Note on:  G#3
@33408, Channel 0, Note on:  D#5
@33408, Channel 0, Note on:  B4
@33408, Channel 0, Note on:  G#4
@33408, Channel 9, Note on:  E2
@33408, Channel 9, Note on:  C2
@33408, Channel 11, Note on:  A#4
@33408, Channel 11, Note on:  B4
@33408, Channel 11, Note on:  D#4
@33408, Channel 11, Note on:  G#4
@33413, Channel 1, Note on:  G#1
@33413, Channel 4, Note on:  F#4
@33417, Channel 4, Note off: D#4
@33420, Channel 9, Note on:  F#2
@33435, Channel 11, Note off: A#4
@33464, Channel 9, Note off: E2
@33486, Channel 9, Note off: D#2
@33499, Channel 9, Note off: F#2
@33578, Channel 9, Note off: C2
@33613, Channel 0, Note off: B4
@33617, Channel 0, Note off: D#5
@33623, Channel 0, Note off: G#4
@33636, Channel 0, Note off: G#3
@33638, Channel 4, Note off: F#4
@33640, Channel 4, Note on:  G#4
@33655, Channel 11, Note off: G#4
@33666, Channel 11, Note off: D#4
@33667, Channel 11, Note off: B4
@33705, Channel 1, Note off: G#1
@33776, Channel 2, Note on:  F#4
@33777, Channel 2, Note on:  D#3
@33779, Channel 1, Note on:  D#2
@33780, Channel 2, Note on:  A#4
@33781, Channel 8, Note on:  D#4
@33784, Channel 8, Note on:  F#4
@33785, Channel 8, Note on:  A#3
@33788, Channel 4, Note on:  F#4
@33792, Channel 0, Note on:  D#3
@33792, Channel 0, Note on:  D#4
@33792, Channel 0, Note on:  A#4
@33792, Channel 0, Note on:  D#5
@33792, Channel 9, Note on:  C2
@33795, Channel 10, Note on:  A#4
@33796, Channel 10, Note on:  D#2
@33798, Channel 4, Note off: G#4
@33799, Channel 10, Note on:  F#4
@33800, Channel 8, Note off: G#4
@33801, Channel 8, Note off: D#4
@33805, Channel 10, Note on:  D#3
@33806, Channel 10, Note off: G#2
@33806, Channel 9, Note on:  B3
@33808, Channel 8, Note off: B3
@33808, Channel 8, Note off: B4
@33808, Channel 10, Note off: G#4
@33810, Channel 2, Note off: B4
@33811, Channel 10, Note off: B3
@33816, Channel 2, Note off: G#4
@33821, Channel 2, Note off: G#3
@33843, Channel 9, Note off: B3
@33948, Channel 9, Note off: C2
@33955, Channel 0, Note off: A#4
@33955, Channel 0, Note off: D#3
@33972, Channel 0, Note off: D#5
@33972, Channel 0, Note off: D#4
@33978, Channel 4, Note off: F#4
@34029, Channel 1, Note off: D#2
@34172, Channel 9, Note on:  D#2
@34175, Channel 1, Note on:  D#2
@34176, Channel 0, Note on:  D#3
@34176, Channel 0, Note on:  D#4
@34176, Channel 0, Note on:  D#5
@34176, Channel 0, Note on:  A#4
@34176, Channel 9, Note on:  E2
@34176, Channel 9, Note on:  C2
@34176, Channel 11, Note on:  A#4
@34176, Channel 11, Note on:  F#4
@34176, Channel 11, Note on:  D#4
@34183, Channel 4, Note on:  F#4
@34187, Channel 3, Note on:  F#4
@34199, Channel 9, Note on:  F#2
@34223, Channel 9, Note off: D#2
@34253, Channel 9, Note off: E2
@34288, Channel 9, Note off: F#2
@34300, Channel 9, Note off: C2
@34353, Channel 0, Note off: D#5
@34354, Channel 0, Note off: A#4
@34354, Channel 0, Note off: D#3
@34368, Channel 0, Note off: D#4
@34394, Channel 1, Note off: D#2
@34404, Channel 11, Note off: F#4
@34405, Channel 9, Note on:  D#2
@34409, Channel 4, Note off: F#4
@34410, Channel 11, Note off: D#4
@34416, Channel 11, Note off: A#4
@34429, Channel 3, Note off: F#4
@34442, Channel 9, Note on:  B3
@34470, Channel 9, Note off: D#2
@34477, Channel 9, Note off: B3
@34547, Channel 4, Note on:  D#4
@34556, Channel 1, Note on:  D#2
@34559, Channel 9, Note on:  B3
@34560, Channel 0, Note on:  D#3
@34560, Channel 0, Note on:  D#5
@34560, Channel 0, Note on:  D#4
@34560, Channel 0, Note on:  A#4
@34560, Channel 9, Note on:  C2
@34574, Channel 3, Note on:  D#4
@34611, Channel 9, Note off: B3
@34649, Channel 9, Note off: C2
@34740, Channel 0, Note off: D#3
@34752, Channel 0, Note off: A#4
@34752, Channel 0, Note off: D#5
@34766, Channel 0, Note off: D#4
@34802, Channel 1, Note off: D#2
@34823, Channel 3, Note off: D#4
@34827, Channel 4, Note off: D#4
@34927, Channel 9, Note on:  D#2
@34944, Channel 0, Note on:  D#3
@34944, Channel 0, Note on:  D#5
@34944, Channel 0, Note on:  A#4
@34944, Channel 0, Note on:  D#4
@34944, Channel 3, Note on:  G#4
@34944, Channel 9, Note on:  C2
@34944, Channel 9, Note on:  E2
@34944, Channel 11, Note on:  A#4
@34944, Channel 11, Note on:  D#4
@34944, Channel 11, Note on:  F#4
@34947, Channel 4, Note on:  G#4
@34955, Channel 9, Note on:  F#2
@34968, Channel 1, Note on:  D#2
@34994, Channel 9, Note off: D#2
@35000, Channel 9, Note off: E2
@35035, Channel 9, Note off: C2
@35050, Channel 9, Note off: F#2
@35130, Channel 0, Note off: D#3
@35152, Channel 0, Note off: A#4
@35160, Channel 0, Note off: D#4
@35167, Channel 3, Note off: G#4
@35171, Channel 0, Note off: D#5
@35183, Channel 11, Note off: F#4
@35184, Channel 1, Note off: D#2
@35185, Channel 11, Note off: D#4
@35198, Channel 11, Note off: A#4
@35198, Channel 1, Note on:  A#1
@35200, Channel 4, Note off: G#4
@35285, Channel 1, Note off: A#1
@35304, Channel 1, Note on:  D#2
@35328, Channel 0, Note on:  F#4
@35328, Channel 0, Note on:  D#3
@35328, Channel 0, Note on:  D#5
@35328, Channel 0, Note on:  A#4
@35328, Channel 3, Note on:  D#4
@35328, Channel 4, Note on:  D#4
@35328, Channel 9, Note on:  C2
@35340, Channel 9, Note on:  B3
@35383, Channel 9, Note off: B3
@35435, Channel 9, Note off: C2
@35502, Channel 0, Note off: D#3
@35511, Channel 0, Note off: A#4
@35522, Channel 0, Note off: D#5
@35523, Channel 0, Note off: F#4
@35562, Channel 1, Note off: D#2
@35672, Channel 3, Note off: D#4
@35693, Channel 1, Note on:  D#2
@35699, Channel 9, Note on:  D#2
@35709, Channel 4, Note off: D#4
@35712, Channel 0, Note on:  F#4
@35712, Channel 0, Note on:  D#3
@35712, Channel 0, Note on:  D#5
@35712, Channel 0, Note on:  A#4
@35712, Channel 9, Note on:  E2
@35712, Channel 9, Note on:  C2
@35712, Channel 11, Note on:  A#4
@35712, Channel 11, Note on:  D#4
@35712, Channel 11, Note on:  F#4
@35734, Channel 9, Note on:  F#2
@35745, Channel 3, Note on:  A#4
@35752, Channel 9, Note off: D#2
@35789, Channel 9, Note off: E2
@35799, Channel 9, Note off: C2
@35825, Channel 9, Note off: F#2
@35894, Channel 0, Note off: A#4
@35894, Channel 0, Note off: D#3
@35900, Channel 0, Note off: D#5
@35903, Channel 0, Note off: F#4
@35910, Channel 11, Note off: F#4
@35912, Channel 11, Note off: D#4
@35914, Channel 11, Note off: A#4
@35923, Channel 1, Note off: D#2
@35947, Channel 9, Note on:  D#2
@35964, Channel 9, Note on:  B3
@36001, Channel 9, Note off: D#2
@36005, Channel 9, Note off: B3
@36037, Channel 3, Note off: A#4
@36080, Channel 1, Note on:  D#2
@36089, Channel 9, Note on:  B3
@36093, Channel 3, Note on:  G#4
@36096, Channel 0, Note on:  D#3
@36096, Channel 0, Note on:  F#4
@36096, Channel 0, Note on:  D#5
@36096, Channel 0, Note on:  A#4
@36096, Channel 9, Note on:  C2
@36149, Channel 9, Note off: B3
@36180, Channel 9, Note off: C2
@36268, Channel 0, Note off: A#4
@36275, Channel 0, Note off: D#5
@36278, Channel 0, Note off: D#3
@36280, Channel 0, Note off: F#4
@36326, Channel 1, Note off: D#2
@36439, Channel 3, Note off: G#4
@36458, Channel 9, Note on:  F#2
@36468, Channel 1, Note on:  D#2
@36477, Channel 3, Note on:  F#4
@36479, Channel 9, Note on:  D#2
@36480, Channel 0, Note on:  F#4
@36480, Channel 0, Note on:  D#3
@36480, Channel 0, Note on:  D#5
@36480, Channel 0, Note on:  A#4
@36480, Channel 9, Note on:  E2
@36480, Channel 9, Note on:  C2
@36480, Channel 11, Note on:  A#4
@36480, Channel 11, Note on:  D#4
@36480, Channel 11, Note on:  F#4
@36536, Channel 9, Note off: E2
@36537, Channel 9, Note off: D#2
@36539, Channel 9, Note off: C2
@36557, Channel 9, Note off: F#2
@36611, Channel 10, Note off: F#4
@36620, Channel 10, Note off: A#4
@36629, Channel 11, Note off: D#4
@36631, Channel 10, Note off: D#4
@36638, Channel 10, Note off: D#2
@36640, Channel 10, Note off: D#3
@36648, Channel 11, Note off: A#4
@36653, Channel 11, Note off: F#4
@36663, Channel 0, Note off: A#4
@36667, Channel 0, Note off: F#4
@36672, Channel 0, Note off: D#5
@36688, Channel 0, Note off: D#3
@36692, Channel 8, Note off: F#4
@36702, Channel 8, Note off: D#4
@36719, Channel 8, Note off: A#3
@36722, Channel 1, Note off: D#2
@36752, Channel 3, Note off: F#4
@36772, Channel 2, Note off: D#3
@36779, Channel 2, Note off: F#4
@36784, Channel 2, Note off: A#4
@36794, Channel 2, Note off: D#4
@36854, Channel 2, Note on:  A#4
@36857, Channel 2, Note on:  F4
@36858, Channel 8, Note on:  F4
@36859, Channel 2, Note on:  D5
@36861, Channel 8, Note on:  D4
@36862, Channel 2, Note on:  A#3
@36862, Channel 8, Note on:  A#3
@36863, Channel 2, Note on:  D4
@36864, Channel 0, Note on:  A#3
@36864, Channel 0, Note on:  F4
@36864, Channel 0, Note on:  D5
@36864, Channel 0, Note on:  A#4
@36864, Channel 1, Note on:  A#1
@36864, Channel 9, Note on:  C2
@36865, Channel 10, Note on:  F4
@36867, Channel 3, Note on:  G#4
@36869, Channel 2, Note on:  A#2
@36869, Channel 10, Note on:  D4
@36871, Channel 10, Note on:  A#3
@36872, Channel 8, Note on:  F3
@36879, Channel 10, Note on:  F3
@36880, Channel 4, Note on:  A#4
@36885, Channel 4, Note on:  D4
@36887, Channel 4, Note on:  F4
@36888, Channel 9, Note on:  B3
@36890, Channel 9, Note on:  A3
@36945, Channel 9, Note off: B3
@36986, Channel 9, Note off: A3
@37027, Channel 0, Note off: A#4
@37030, Channel 0, Note off: A#3
@37032, Channel 9, Note off: C2
@37033, Channel 0, Note off: D5
@37037, Channel 1, Note off: A#1
@37047, Channel 0, Note off: F4
@37182, Channel 2, Note off: A#3
@37242, Channel 9, Note on:  D#2
@37248, Channel 0, Note on:  A#3
@37248, Channel 0, Note on:  F4
@37248, Channel 0, Note on:  D5
@37248, Channel 0, Note on:  A#4
@37248, Channel 1, Note on:  A#1
@37248, Channel 9, Note on:  C2
@37248, Channel 9, Note on:  E2
@37248, Channel 11, Note on:  A#4
@37248, Channel 11, Note on:  F4
@37248, Channel 11, Note on:  D5
@37277, Channel 9, Note on:  F#2
@37293, Channel 9, Note off: D#2
@37325, Channel 9, Note off: E2
@37391, Channel 9, Note off: F#2
@37417, Channel 0, Note off: A#3
@37428, Channel 9, Note off: C2
@37428, Channel 1, Note off: A#1
@37432, Channel 0, Note off: A#4
@37432, Channel 0, Note off: D5
@37445, Channel 0, Note off: F4
@37450, Channel 11, Note off: A#4
@37460, Channel 11, Note off: D5
@37466, Channel 11, Note off: F4
@37480, Channel 9, Note on:  D#2
@37522, Channel 9, Note on:  B3
@37563, Channel 9, Note off: B3
@37598, Channel 9, Note off: D#2
@37632, Channel 0, Note on:  A#3
@37632, Channel 0, Note on:  D5
@37632, Channel 0, Note on:  F4
@37632, Channel 0, Note on:  A#4
@37632, Channel 1, Note on:  A#1
@37632, Channel 9, Note on:  C2
@37646, Channel 9, Note on:  B3
@37721, Channel 9, Note off: B3
@37801, Channel 9, Note off: C2
@37801, Channel 0, Note off: A#3
@37818, Channel 0, Note off: A#4
@37826, Channel 0, Note off: D5
@37827, Channel 1, Note off: A#1
@37837, Channel 0, Note off: F4
@37962, Channel 3, Note off: G#4
@38016, Channel 0, Note on:  D5
@38016, Channel 0, Note on:  F4
@38016, Channel 0, Note on:  A#3
@38016, Channel 0, Note on:  A#4
@38016, Channel 1, Note on:  A#1
@38016, Channel 9, Note on:  E2
@38016, Channel 9, Note on:  C2
@38016, Channel 11, Note on:  C#5
@38016, Channel 11, Note on:  F4
@38016, Channel 11, Note on:  A#4
@38016, Channel 11, Note on:  D5
@38032, Channel 9, Note on:  F#2
@38035, Channel 3, Note on:  F#4
@38040, Channel 11, Note off: C#5
@38040, Channel 9, Note on:  D#2
@38072, Channel 9, Note off: E2
@38125, Channel 9, Note off: F#2
@38189, Channel 9, Note off: C2
@38192, Channel 0, Note off: D5
@38197, Channel 0, Note off: A#3
@38200, Channel 1, Note off: A#1
@38202, Channel 0, Note off: A#4
@38208, Channel 0, Note off: F4
@38209, Channel 9, Note off: D#2
@38232, Channel 11, Note off: A#4
@38233, Channel 3, Note off: F#4
@38253, Channel 11, Note off: D5
@38264, Channel 11, Note off: F4
@38269, Channel 3, Note on:  D4
@38270, Channel 2, Note off: D4
@38400, Channel 0, Note on:  A#3
@38400, Channel 0, Note on:  D5
@38400, Channel 0, Note on:  F4
@38400, Channel 0, Note on:  A#4
@38400, Channel 1, Note on:  A#1
@38400, Channel 9, Note on:  C2
@38407, Channel 2, Note on:  A#3
@38440, Channel 9, Note on:  B3
@38486, Channel 9, Note off: B3
@38503, Channel 4, Note off: D4
@38506, Channel 4, Note off: F4
@38514, Channel 4, Note off: A#4
@38561, Channel 9, Note off: C2
@38583, Channel 0, Note off: A#3
@38593, Channel 0, Note off: D5
@38597, Channel 0, Note off: A#4
@38603, Channel 0, Note off: F4
@38610, Channel 1, Note off: A#1
@38676, Channel 4, Note on:  D#4
@38757, Channel 4, Note off: D#4
@38773, Channel 9, Note on:  D#2
@38784, Channel 0, Note on:  A#3
@38784, Channel 0, Note on:  D5
@38784, Channel 0, Note on:  F4
@38784, Channel 0, Note on:  A#4
@38784, Channel 1, Note on:  A#1
@38784, Channel 9, Note on:  C2
@38784, Channel 9, Note on:  E2
@38784, Channel 11, Note on:  D5
@38784, Channel 11, Note on:  F4
@38784, Channel 11, Note on:  A#4
@38789, Channel 4, Note on:  F#4
@38808, Channel 9, Note on:  F#2
@38832, Channel 9, Note off: D#2
@38861, Channel 9, Note off: E2
@38905, Channel 4, Note off: F#4
@38921, Channel 9, Note off: F#2
@38947, Channel 9, Note off: C2
@38956, Channel 0, Note off: A#3
@38965, Channel 0, Note off: A#4
@38966, Channel 0, Note off: D5
@38978, Channel 0, Note off: F4
@38981, Channel 1, Note off: A#1
@39019, Channel 11, Note off: A#4
@39022, Channel 4, Note on:  G#4
@39022, Channel 9, Note on:  D#2
@39028, Channel 11, Note off: D5
@39043, Channel 11, Note off: F4
@39047, Channel 9, Note on:  B3
@39083, Channel 9, Note off: B3
@39132, Channel 9, Note off: D#2
@39145, Channel 4, Note off: G#4
@39160, Channel 4, Note on:  F#4
@39168, Channel 0, Note on:  A#3
@39168, Channel 0, Note on:  D5
@39168, Channel 0, Note on:  F4
@39168, Channel 0, Note on:  A#4
@39168, Channel 1, Note on:  A#1
@39168, Channel 9, Note on:  C2
@39176, Channel 9, Note on:  B3
@39232, Channel 9, Note off: B3
@39325, Channel 9, Note off: C2
@39350, Channel 0, Note off: A#3
@39366, Channel 1, Note off: A#1
@39373, Channel 0, Note off: D5
@39375, Channel 0, Note off: A#4
@39386, Channel 0, Note off: F4
@39389, Channel 4, Note off: F#4
@39425, Channel 4, Note on:  D#4
@39500, Channel 4, Note off: D#4
@39546, Channel 9, Note on:  D#2
@39550, Channel 4, Note on:  F#4
@39552, Channel 0, Note on:  A#3
@39552, Channel 0, Note on:  D5
@39552, Channel 0, Note on:  F4
@39552, Channel 0, Note on:  A#4
@39552, Channel 1, Note on:  A#1
@39552, Channel 9, Note on:  E2
@39552, Channel 9, Note on:  C2
@39552, Channel 11, Note on:  F4
@39552, Channel 11, Note on:  A#4
@39552, Channel 11, Note on:  D5
@39564, Channel 9, Note on:  F#2
@39608, Channel 9, Note off: E2
@39630, Channel 9, Note off: D#2
@39643, Channel 9, Note off: F#2
@39681, Channel 0, Note off: D5
@39694, Channel 0, Note off: F4
@39704, Channel 0, Note off: A#3
@39722, Channel 9, Note off: C2
@39723, Channel 0, Note off: A#4
@39765, Channel 4, Note on:  G#4
@39774, Channel 1, Note off: A#1
@39779, Channel 4, Note off: F#4
@39789, Channel 11, Note off: D5
@39796, Channel 11, Note off: A#4
@39806, Channel 8, Note off: D4
@39808, Channel 11, Note off: F4
@39810, Channel 8, Note off: F4
@39820, Channel 8, Note off: A#3
@39821, Channel 2, Note off: F4
@39837, Channel 2, Note off: D5
@39862, Channel 3, Note off: D4
@39864, Channel 2, Note off: A#4
@39885, Channel 10, Note off: D4
@39896, Channel 10, Note on:  F#4
@39905, Channel 4, Note off: G#4
@39909, Channel 2, Note off: A#3
@39914, Channel 10, Note on:  D#3
@39922, Channel 8, Note on:  D#3
@39923, Channel 2, Note on:  D#3
@39925, Channel 10, Note off: F3
@39926, Channel 10, Note on:  D#4
@39932, Channel 2, Note on:  A#4
@39933, Channel 2, Note on:  D#5
@39936, Channel 0, Note on:  D#3
@39936, Channel 0, Note on:  F#4
@39936, Channel 0, Note on:  A#4
@39936, Channel 0, Note on:  D#5
@39936, Channel 1, Note on:  D#2
@39936, Channel 9, Note on:  C2
@39937, Channel 8, Note off: F3
@39937, Channel 2, Note on:  F#4
@39945, Channel 10, Note off: F4
@39946, Channel 8, Note on:  D#4
@39947, Channel 8, Note on:  F#4
@39949, Channel 8, Note on:  A#3
@39950, Channel 9, Note on:  B3
@39954, Channel 2, Note off: A#2
@39987, Channel 9, Note off: B3
@40092, Channel 9, Note off: C2
@40103, Channel 0, Note off: D#3
@40104, Channel 0, Note off: A#4
@40110, Channel 0, Note off: D#5
@40115, Channel 0, Note off: F#4
@40150, Channel 1, Note off: D#2
@40296, Channel 3, Note on:  F#4
@40316, Channel 9, Note on:  D#2
@40320, Channel 0, Note on:  D#3
@40320, Channel 0, Note on:  F#4
@40320, Channel 0, Note on:  D#5
@40320, Channel 0, Note on:  A#4
@40320, Channel 1, Note on:  D#2
@40320, Channel 9, Note on:  E2
@40320, Channel 9, Note on:  C2
@40320, Channel 11, Note on:  A#4
@40320, Channel 11, Note on:  D#4
@40320, Channel 11, Note on:  F#4
@40324, Channel 4, Note on:  F#4
@40343, Channel 9, Note on:  F#2
@40367, Channel 9, Note off: D#2
@40397, Channel 9, Note off: E2
@40432, Channel 9, Note off: F#2
@40444, Channel 9, Note off: C2
@40493, Channel 11, Note off: A#4
@40499, Channel 11, Note off: F#4
@40500, Channel 0, Note off: A#4
@40507, Channel 11, Note off: D#4
@40510, Channel 0, Note off: D#5
@40519, Channel 0, Note off: D#3
@40520, Channel 0, Note off: F#4
@40546, Channel 1, Note off: D#2
@40549, Channel 9, Note on:  D#2
@40570, Channel 4, Note off: F#4
@40586, Channel 9, Note on:  B3
@40588, Channel 3, Note off: F#4
@40614, Channel 9, Note off: D#2
@40621, Channel 9, Note off: B3
@40703, Channel 9, Note on:  B3
@40704, Channel 0, Note on:  D#3
@40704, Channel 0, Note on:  F#4
@40704, Channel 0, Note on:  D#5
@40704, Channel 0, Note on:  A#4
@40704, Channel 1, Note on:  D#2
@40704, Channel 4, Note on:  D#4
@40704, Channel 9, Note on:  C2
@40708, Channel 3, Note on:  D#4
@40755, Channel 9, Note off: B3
@40793, Channel 9, Note off: C2
@40870, Channel 0, Note off: D#3
@40872, Channel 0, Note off: A#4
@40886, Channel 0, Note off: D#5
@40891, Channel 0, Note off: F#4
@40959, Channel 1, Note off: D#2
@40962, Channel 4, Note off: D#4
@40989, Channel 3, Note off: D#4
@41071, Channel 9, Note on:  D#2
@41079, Channel 4, Note on:  G#4
@41088, Channel 0, Note on:  D#3
@41088, Channel 0, Note on:  F#4
@41088, Channel 0, Note on:  D#5
@41088, Channel 0, Note on:  A#4
@41088, Channel 1, Note on:  D#2
@41088, Channel 9, Note on:  C2
@41088, Channel 9, Note on:  E2
@41088, Channel 11, Note on:  A#4
@41088, Channel 11, Note on:  D#4
@41088, Channel 11, Note on:  F#4
@41093, Channel 3, Note on:  G#4
@41099, Channel 9, Note on:  F#2
@41138, Channel 9, Note off: D#2
@41144, Channel 9, Note off: E2
@41179, Channel 9, Note off: C2
@41194, Channel 9, Note off: F#2
@41246, Channel 0, Note off: A#4
@41252, Channel 0, Note off: D#3
@41255, Channel 0, Note off: D#5
@41265, Channel 0, Note off: F#4
@41268, Channel 11, Note off: D#4
@41273, Channel 11, Note off: F#4
@41287, Channel 4, Note off: G#4
@41291, Channel 11, Note off: A#4
@41315, Channel 1, Note off: D#2
@41354, Channel 3, Note off: G#4
@41448, Channel 4, Note on:  D#4
@41472, Channel 0, Note on:  D#3
@41472, Channel 0, Note on:  F#4
@41472, Channel 0, Note on:  D#5
@41472, Channel 0, Note on:  A#4
@41472, Channel 1, Note on:  D#2
@41472, Channel 9, Note on:  C2
@41475, Channel 3, Note on:  D#4
@41484, Channel 9, Note on:  B3
@41527, Channel 9, Note off: B3
@41579, Channel 9, Note off: C2
@41630, Channel 0, Note off: A#4
@41644, Channel 0, Note off: D#5
@41645, Channel 0, Note off: D#3
@41651, Channel 0, Note off: F#4
@41701, Channel 4, Note off: D#4
@41713, Channel 1, Note off: D#2
@41815, Channel 3, Note off: D#4
@41843, Channel 9, Note on:  D#2
@41852, Channel 3, Note on:  A#4
@41856, Channel 0, Note on:  D#3
@41856, Channel 0, Note on:  F#4
@41856, Channel 0, Note on:  A#4
@41856, Channel 0, Note on:  D#5
@41856, Channel 1, Note on:  D#2
@41856, Channel 9, Note on:  E2
@41856, Channel 9, Note on:  C2
@41856, Channel 11, Note on:  A#4
@41856, Channel 11, Note on:  F#4
@41856, Channel 11, Note on:  D#4
@41878, Channel 9, Note on:  F#2
@41896, Channel 9, Note off: D#2
@41933, Channel 9, Note off: E2
@41943, Channel 9, Note off: C2
@41969, Channel 9, Note off: F#2
@42008, Channel 0, Note off: A#4
@42014, Channel 0, Note off: D#5
@42016, Channel 0, Note off: D#3
@42025, Channel 0, Note off: F#4
@42044, Channel 11, Note off: F#4
@42063, Channel 1, Note off: D#2
@42065, Channel 11, Note off: A#4
@42075, Channel 11, Note off: D#4
@42090, Channel 3, Note off: A#4
@42091, Channel 9, Note on:  D#2
@42108, Channel 9, Note on:  B3
@42145, Channel 9, Note off: D#2
@42149, Channel 9, Note off: B3
@42233, Channel 9, Note on:  B3
@42238, Channel 3, Note on:  C#5
@42240, Channel 0, Note on:  D#3
@42240, Channel 0, Note on:  F#4
@42240, Channel 0, Note on:  D#5
@42240, Channel 0, Note on:  A#4
@42240, Channel 1, Note on:  D#2
@42240, Channel 9, Note on:  C2
@42293, Channel 9, Note off: B3
@42324, Channel 9, Note off: C2
@42408, Channel 0, Note off: A#4
@42420, Channel 0, Note off: D#5
@42424, Channel 0, Note off: F#4
@42426, Channel 0, Note off: D#3
@42443, Channel 3, Note off: C#5
@42471, Channel 1, Note off: D#2
@42515, Channel 10, Note off: D#3
@42549, Channel 10, Note off: A#3
@42550, Channel 10, Note off: D#4
@42567, Channel 10, Note off: F#4
@42602, Channel 9, Note on:  F#2
@42616, Channel 3, Note on:  A#4
@42623, Channel 9, Note on:  D#2
@42624, Channel 0, Note on:  D#3
@42624, Channel 0, Note on:  F#4
@42624, Channel 0, Note on:  A#4
@42624, Channel 0, Note on:  D#5
@42624, Channel 1, Note on:  D#2
@42624, Channel 9, Note on:  E2
@42624, Channel 9, Note on:  C2
@42624, Channel 11, Note on:  A#4
@42624, Channel 11, Note on:  D#4
@42624, Channel 11, Note on:  F#4
@42680, Channel 9, Note off: E2
@42681, Channel 9, Note off: D#2
@42683, Channel 9, Note off: C2
@42701, Channel 9, Note off: F#2
@42756, Channel 0, Note off: A#4
@42773, Channel 0, Note off: D#5
@42773, Channel 0, Note off: D#3
@42776, Channel 0, Note off: F#4
@42799, Channel 8, Note off: D#4
@42818, Channel 8, Note off: A#3
@42823, Channel 8, Note off: F#4
@42835, Channel 8, Note off: D#3
@42838, Channel 1, Note off: D#2
@42840, Channel 11, Note off: D#4
@42841, Channel 11, Note off: A#4
@42847, Channel 11, Note off: F#4
@42851, Channel 3, Note off: A#4
@42963, Channel 2, Note off: A#4
@42965, Channel 2, Note off: D#3
@42976, Channel 2, Note off: F#4
@42987, Channel 2, Note off: D#5
@43007, Channel 1, Note on:  G#1
@43008, Channel 0, Note on:  D#5
@43008, Channel 0, Note on:  B4
@43008, Channel 0, Note on:  G#4
@43008, Channel 0, Note on:  G#3
@43008, Channel 2, Note on:  D#4
@43008, Channel 2, Note on:  G#3
@43008, Channel 2, Note on:  G#4
@43008, Channel 9, Note on:  C2
@43010, Channel 2, Note on:  B4
@43017, Channel 3, Note on:  G#4
@43022, Channel 8, Note on:  D#4
@43024, Channel 8, Note on:  G#4
@43026, Channel 8, Note on:  B4
@43029, Channel 8, Note on:  B3
@43032, Channel 9, Note on:  B3
@43034, Channel 9, Note on:  A3
@43089, Channel 9, Note off: B3
@43130, Channel 9, Note off: A3
@43176, Channel 9, Note off: C2
@43199, Channel 0, Note off: G#3
@43199, Channel 0, Note off: D#5
@43206, Channel 0, Note off: G#4
@43213, Channel 0, Note off: B4
@43242, Channel 1, Note off: G#1
@43386, Channel 9, Note on:  D#2
@43392, Channel 0, Note on:  G#3
@43392, Channel 0, Note on:  B4
@43392, Channel 0, Note on:  G#4
@43392, Channel 0, Note on:  D#5
@43392, Channel 1, Note on:  B1
@43392, Channel 9, Note on:  C2
@43392, Channel 9, Note on:  E2
@43392, Channel 11, Note on:  B4
@43392, Channel 11, Note on:  D#4
@43392, Channel 11, Note on:  G#4
@43421, Channel 9, Note on:  F#2
@43437, Channel 9, Note off: D#2
@43469, Channel 9, Note off: E2
@43535, Channel 9, Note off: F#2
@43572, Channel 9, Note off: C2
@43572, Channel 0, Note off: G#3
@43577, Channel 0, Note off: D#5
@43582, Channel 0, Note off: G#4
@43585, Channel 0, Note off: B4
@43602, Channel 11, Note off: G#4
@43604, Channel 11, Note off: B4
@43610, Channel 11, Note off: D#4
@43624, Channel 9, Note on:  D#2
@43666, Channel 9, Note on:  B3
@43686, Channel 1, Note off: B1
@43707, Channel 9, Note off: B3
@43742, Channel 9, Note off: D#2
@43776, Channel 0, Note on:  G#3
@43776, Channel 0, Note on:  G#4
@43776, Channel 0, Note on:  B4
@43776, Channel 0, Note on:  D#5
@43776, Channel 1, Note on:  D#2
@43776, Channel 9, Note on:  C2
@43790, Channel 9, Note on:  B3
@43865, Channel 9, Note off: B3
@43924, Channel 0, Note off: G#3
@43945, Channel 9, Note off: C2
@43947, Channel 0, Note off: D#5
@43965, Channel 0, Note off: G#4
@43968, Channel 0, Note off: B4
@44075, Channel 1, Note off: D#2
@44159, Channel 3, Note on:  F#4
@44160, Channel 0, Note on:  G#3
@44160, Channel 0, Note on:  D#5
@44160, Channel 0, Note on:  B4
@44160, Channel 0, Note on:  G#4
@44160, Channel 1, Note on:  B1
@44160, Channel 9, Note on:  E2
@44160, Channel 9, Note on:  C2
@44160, Channel 11, Note on:  D#4
@44160, Channel 11, Note on:  B4
@44160, Channel 11, Note on:  G#4
@44171, Channel 3, Note off: G#4
@44176, Channel 9, Note on:  F#2
@44184, Channel 9, Note on:  D#2
@44216, Channel 9, Note off: E2
@44269, Channel 9, Note off: F#2
@44305, Channel 0, Note off: G#3
@44317, Channel 0, Note off: D#5
@44331, Channel 0, Note off: G#4
@44333, Channel 9, Note off: C2
@44333, Channel 0, Note off: B4
@44352, Channel 11, Note off: G#4
@44353, Channel 9, Note off: D#2
@44353, Channel 11, Note off: B4
@44375, Channel 11, Note off: D#4
@44422, Channel 3, Note on:  G#4
@44435, Channel 3, Note off: F#4
@44522, Channel 1, Note off: B1
@44527, Channel 3, Note on:  F#4
@44544, Channel 0, Note on:  G#3
@44544, Channel 0, Note on:  D#5
@44544, Channel 0, Note on:  G#4
@44544, Channel 0, Note on:  B4
@44544, Channel 1, Note on:  G#1
@44544, Channel 9, Note on:  C2
@44548, Channel 3, Note off: G#4
@44584, Channel 9, Note on:  B3
@44630, Channel 9, Note off: B3
@44655, Channel 3, Note off: F#4
@44656, Channel 3, Note on:  D#4
@44700, Channel 0, Note off: G#3
@44705, Channel 9, Note off: C2
@44722, Channel 0, Note off: D#5
@44731, Channel 0, Note off: G#4
@44736, Channel 0, Note off: B4
@44817, Channel 4, Note on:  D#4
@44820, Channel 1, Note off: G#1
@44917, Channel 9, Note on:  D#2
@44925, Channel 4, Note off: D#4
@44928, Channel 0, Note on:  G#3
@44928, Channel 0, Note on:  G#4
@44928, Channel 0, Note on:  B4
@44928, Channel 0, Note on:  D#5
@44928, Channel 1, Note on:  B1
@44928, Channel 9, Note on:  C2
@44928, Channel 9, Note on:  E2
@44928, Channel 11, Note on:  A#4
@44928, Channel 11, Note on:  B4
@44928, Channel 11, Note on:  D#4
@44928, Channel 11, Note on:  G#4
@44947, Channel 4, Note on:  F#4
@44952, Channel 9, Note on:  F#2
@44953, Channel 11, Note off: A#4
@44976, Channel 9, Note off: D#2
@45005, Channel 9, Note off: E2
@45065, Channel 9, Note off: F#2
@45091, Channel 9, Note off: C2
@45091, Channel 0, Note off: G#3
@45105, Channel 0, Note off: D#5
@45112, Channel 0, Note off: G#4
@45120, Channel 11, Note off: G#4
@45120, Channel 0, Note off: B4
@45141, Channel 11, Note off: B4
@45142, Channel 11, Note off: D#4
@45166, Channel 9, Note on:  D#2
@45174, Channel 4, Note off: F#4
@45178, Channel 4, Note on:  G#4
@45191, Channel 9, Note on:  B3
@45227, Channel 9, Note off: B3
@45256, Channel 1, Note off: B1
@45276, Channel 9, Note off: D#2
@45312, Channel 0, Note on:  G#3
@45312, Channel 0, Note on:  D#5
@45312, Channel 0, Note on:  B4
@45312, Channel 0, Note on:  G#4
@45312, Channel 1, Note on:  D#2
@45312, Channel 9, Note on:  C2
@45320, Channel 9, Note on:  B3
@45327, Channel 4, Note on:  F#4
@45347, Channel 4, Note off: G#4
@45376, Channel 9, Note off: B3
@45464, Channel 0, Note off: G#3
@45469, Channel 9, Note off: C2
@45487, Channel 0, Note off: D#5
@45508, Channel 0, Note off: G#4
@45512, Channel 0, Note off: B4
@45524, Channel 4, Note off: F#4
@45554, Channel 4, Note on:  D#4
@45662, Channel 1, Note off: D#2
@45690, Channel 9, Note on:  D#2
@45696, Channel 0, Note on:  G#3
@45696, Channel 0, Note on:  D#5
@45696, Channel 0, Note on:  B4
@45696, Channel 0, Note on:  G#4
@45696, Channel 1, Note on:  B1
@45696, Channel 9, Note on:  E2
@45696, Channel 9, Note on:  C2
@45696, Channel 11, Note on:  D#4
@45696, Channel 11, Note on:  B4
@45696, Channel 11, Note on:  G#4
@45701, Channel 4, Note on:  F#4
@45705, Channel 4, Note off: D#4
@45708, Channel 9, Note on:  F#2
@45752, Channel 9, Note off: E2
@45774, Channel 9, Note off: D#2
@45775, Channel 3, Note off: D#4
@45787, Channel 9, Note off: F#2
@45866, Channel 9, Note off: C2
@45901, Channel 0, Note off: B4
@45905, Channel 0, Note off: D#5
@45908, Channel 11, Note off: B4
@45911, Channel 0, Note off: G#4
@45914, Channel 11, Note off: G#4
@45915, Channel 11, Note off: D#4
@45924, Channel 0, Note off: G#3
@45926, Channel 4, Note off: F#4
@45928, Channel 4, Note on:  G#4
@46003, Channel 1, Note off: B1
@46064, Channel 2, Note on:  F#4
@46065, Channel 2, Note on:  D#3
@46068, Channel 2, Note on:  A#4
@46069, Channel 8, Note on:  D#4
@46072, Channel 8, Note on:  F#4
@46073, Channel 8, Note on:  A#3
@46076, Channel 4, Note on:  F#4
@46080, Channel 0, Note on:  D#3
@46080, Channel 0, Note on:  D#4
@46080, Channel 0, Note on:  A#4
@46080, Channel 0, Note on:  D#5
@46080, Channel 1, Note on:  D#2
@46080, Channel 9, Note on:  C2
@46083, Channel 10, Note on:  A#4
@46084, Channel 10, Note on:  D#2
@46086, Channel 4, Note off: G#4
@46087, Channel 10, Note on:  F#4
@46088, Channel 8, Note off: G#4
@46089, Channel 8, Note off: D#4
@46093, Channel 10, Note on:  D#3
@46094, Channel 9, Note on:  B3
@46096, Channel 8, Note off: B3
@46096, Channel 8, Note off: B4
@46098, Channel 2, Note off: B4
@46104, Channel 2, Note off: G#4
@46109, Channel 2, Note off: G#3
@46131, Channel 9, Note off: B3
@46236, Channel 9, Note off: C2
@46243, Channel 0, Note off: A#4
@46243, Channel 0, Note off: D#3
@46260, Channel 0, Note off: D#5
@46260, Channel 0, Note off: D#4
@46266, Channel 4, Note off: F#4
@46316, Channel 1, Note off: D#2
@46451, Channel 3, Note on:  F#4
@46460, Channel 9, Note on:  D#2
@46464, Channel 0, Note on:  D#3
@46464, Channel 0, Note on:  D#4
@46464, Channel 0, Note on:  D#5
@46464, Channel 0, Note on:  A#4
@46464, Channel 1, Note on:  D#2
@46464, Channel 9, Note on:  E2
@46464, Channel 9, Note on:  C2
@46464, Channel 11, Note on:  A#4
@46464, Channel 11, Note on:  D#4
@46464, Channel 11, Note on:  F#4
@46471, Channel 4, Note on:  F#4
@46487, Channel 9, Note on:  F#2
@46511, Channel 9, Note off: D#2
@46541, Channel 9, Note off: E2
@46576, Channel 9, Note off: F#2
@46588, Channel 9, Note off: C2
@46639, Channel 11, Note off: A#4
@46641, Channel 0, Note off: D#5
@46642, Channel 11, Note off: F#4
@46642, Channel 0, Note off: A#4
@46642, Channel 0, Note off: D#3
@46644, Channel 11, Note off: D#4
@46656, Channel 0, Note off: D#4
@46692, Channel 1, Note off: D#2
@46693, Channel 9, Note on:  D#2
@46697, Channel 4, Note off: F#4
@46699, Channel 3, Note off: F#4
@46730, Channel 9, Note on:  B3
@46758, Channel 9, Note off: D#2
@46765, Channel 9, Note off: B3
@46835, Channel 4, Note on:  D#4
@46842, Channel 3, Note on:  D#4
@46847, Channel 9, Note on:  B3
@46848, Channel 0, Note on:  D#3
@46848, Channel 0, Note on:  D#5
@46848, Channel 0, Note on:  D#4
@46848, Channel 0, Note on:  A#4
@46848, Channel 1, Note on:  D#2
@46848, Channel 9, Note on:  C2
@46899, Channel 9, Note off: B3
@46937, Channel 9, Note off: C2
@47028, Channel 0, Note off: D#3
@47040, Channel 0, Note off: A#4
@47040, Channel 0, Note off: D#5
@47054, Channel 0, Note off: D#4
@47087, Channel 1, Note off: D#2
@47102, Channel 3, Note off: D#4
@47115, Channel 4, Note off: D#4
@47215, Channel 9, Note on:  D#2
@47227, Channel 3, Note on:  G#4
@47232, Channel 0, Note on:  D#3
@47232, Channel 0, Note on:  D#5
@47232, Channel 0, Note on:  A#4
@47232, Channel 0, Note on:  D#4
@47232, Channel 1, Note on:  D#2
@47232, Channel 9, Note on:  C2
@47232, Channel 9, Note on:  E2
@47232, Channel 11, Note on:  A#4
@47232, Channel 11, Note on:  D#4
@47232, Channel 11, Note on:  F#4
@47235, Channel 4, Note on:  G#4
@47243, Channel 9, Note on:  F#2
@47282, Channel 9, Note off: D#2
@47288, Channel 9, Note off: E2
@47323, Channel 9, Note off: C2
@47338, Channel 9, Note off: F#2
@47416, Channel 11, Note off: F#4
@47418, Channel 0, Note off: D#3
@47428, Channel 11, Note off: D#4
@47434, Channel 11, Note off: A#4
@47440, Channel 0, Note off: A#4
@47448, Channel 0, Note off: D#4
@47459, Channel 0, Note off: D#5
@47475, Channel 1, Note off: D#2
@47488, Channel 4, Note off: G#4
@47492, Channel 3, Note off: G#4
@47611, Channel 3, Note on:  D#4
@47876, Channel 3, Note off: D#4
@48899, Channel 10, Note off: F#4
@48908, Channel 10, Note off: A#4
@48926, Channel 10, Note off: D#2
@48928, Channel 10, Note off: D#3
@48980, Channel 8, Note off: F#4
@48990, Channel 8, Note off: D#4
@49007, Channel 8, Note off: A#3
@49060, Channel 2, Note off: D#3
@49067, Channel 2, Note off: F#4
@49072, Channel 2, Note off: A#4
@49082, Channel 2, Note off: D#4
